<svg xmlns="http://www.w3.org/2000/svg" version="1.1" xmlns:xlink="http://www.w3.org/1999/xlink" xmlns:svgjs="http://svgjs.dev/svgjs" width="1500" height="507" viewBox="0 0 1500 507"><g transform="matrix(1,0,0,1,7.414149069557084,-1.0119162577296663)"><svg viewBox="0 0 396 134" data-background-color="#ffffff" preserveAspectRatio="xMidYMid meet" height="507" width="1500" xmlns="http://www.w3.org/2000/svg" xmlns:xlink="http://www.w3.org/1999/xlink"><g id="tight-bounds" transform="matrix(1,0,0,1,0.2400000000000091,0.26744926732894214)"><svg viewBox="0 0 395.52 133.46510146534212" height="133.46510146534212" width="395.52"><g><svg viewBox="0 0 613.7776292381106 207.11441536059257" height="133.46510146534212" width="395.52"><g transform="matrix(1,0,0,1,216.28002923811076,24.200920062842414)"><svg viewBox="0 0 397.4975999999999 158.71257523490775" height="158.71257523490775" width="397.4975999999999"><g id="textblocktransform"><svg viewBox="0 0 397.4975999999999 158.71257523490775" height="158.71257523490775" width="397.4975999999999" id="textblock"><g><rect width="397.4975999999999" height="9.424049303230321" x="0" y="115.60308648629739" fill="#ff7f50" opacity="1" stroke-width="0" stroke="transparent" fill-opacity="1" class="rect-yte-0" data-fill-palette-color="primary" rx="1%" id="yte-0" data-palette-color="#ff7f50"></rect></g><g transform="matrix(1,0,0,1,0.9887999999999693,0)"><svg viewBox="0 0 395.52 104.50145772594753" height="104.50145772594753" width="395.52"><g transform="matrix(1,0,0,1,0,0)"><svg width="395.52" viewBox="3.9 -35.5 137.19 36.25" height="104.50145772594753" data-palette-color="#ff7f50"><path d="M3.9 0L3.9-35 14.95-35Q19.05-35 21.4-32.9 23.75-30.8 23.75-26.5L23.75-26.5Q23.75-24.55 23.1-22.8 22.45-21.05 20.45-19.7L20.45-19.7 20.4-19.6 20.4-19.55Q22.6-18.55 24.08-16.3 25.55-14.05 25.55-10.45L25.55-10.45Q25.55-6.15 23.23-3.08 20.9 0 15.4 0L15.4 0 3.9 0ZM14.85-20.65Q17.65-20.65 19.25-22.15 20.85-23.65 20.85-26.5L20.85-26.5Q20.85-32.35 14.55-32.35L14.55-32.35 6.7-32.35 6.7-20.65 14.85-20.65ZM15.3-2.65Q18.65-2.65 20.6-4.45 22.55-6.25 22.55-10.65L22.55-10.65Q22.55-14.15 20.65-16.03 18.75-17.9 16.15-17.9L16.15-17.9 6.7-17.9 6.7-2.65 15.3-2.65ZM49.75-9.2Q49.75-5 47.45-2.25 45.15 0.5 40.5 0.5L40.5 0.5Q35.85 0.5 33.47-2.27 31.1-5.05 31.1-9.2L31.1-9.2 31.1-15.8Q31.1-20.55 33.52-23.08 35.95-25.6 40.5-25.6L40.5-25.6Q44.85-25.6 47.3-22.98 49.75-20.35 49.75-15.8L49.75-15.8 49.75-9.2ZM46.95-15.8Q46.95-19.55 45.22-21.3 43.5-23.05 40.5-23.05L40.5-23.05Q37.4-23.05 35.65-21.3 33.9-19.55 33.9-15.8L33.9-15.8 33.9-8.7Q33.9-5.7 35.67-3.85 37.45-2 40.5-2L40.5-2Q43.6-2 45.27-3.83 46.95-5.65 46.95-8.7L46.95-8.7 46.95-15.8ZM73.95-9.2Q73.95-5 71.65-2.25 69.35 0.5 64.7 0.5L64.7 0.5Q60.05 0.5 57.67-2.27 55.3-5.05 55.3-9.2L55.3-9.2 55.3-15.8Q55.3-20.55 57.72-23.08 60.15-25.6 64.7-25.6L64.7-25.6Q69.05-25.6 71.5-22.98 73.95-20.35 73.95-15.8L73.95-15.8 73.95-9.2ZM71.15-15.8Q71.15-19.55 69.42-21.3 67.7-23.05 64.7-23.05L64.7-23.05Q61.6-23.05 59.85-21.3 58.1-19.55 58.1-15.8L58.1-15.8 58.1-8.7Q58.1-5.7 59.87-3.85 61.65-2 64.7-2L64.7-2Q67.8-2 69.47-3.83 71.15-5.65 71.15-8.7L71.15-8.7 71.15-15.8ZM93.94 0L84.34-15.85 81.74-13.6 81.74 0 78.94 0 78.94-35 81.74-35 81.74-16.75 91.74-26 93.74-24.05 86.34-17.6Q89.74-11.95 97.29 0L97.29 0 93.94 0ZM102.89-32.15Q102.24-32.15 101.72-32.68 101.19-33.2 101.19-33.85L101.19-33.85Q101.19-34.5 101.69-35 102.19-35.5 102.89-35.5L102.89-35.5Q103.59-35.5 104.07-35.02 104.54-34.55 104.54-33.85L104.54-33.85Q104.54-33.15 104.04-32.65 103.54-32.15 102.89-32.15L102.89-32.15ZM101.44 0L101.44-25.05 104.24-25.05 104.24 0 101.44 0ZM112.99-6.35Q113.29-4.1 115.24-2.98 117.19-1.85 119.59-1.85L119.59-1.85Q121.84-1.85 123.69-2.88 125.54-3.9 125.54-6.2L125.54-6.2Q125.54-7.7 124.66-8.68 123.79-9.65 122.49-10.25 121.19-10.85 118.99-11.55L118.99-11.55Q116.54-12.35 114.99-13.05 113.44-13.75 112.29-15.03 111.14-16.3 110.94-18.25L110.94-18.25 110.89-18.85Q110.89-20.5 111.81-22.08 112.74-23.65 114.66-24.65 116.59-25.65 119.49-25.65L119.49-25.65Q121.09-25.65 122.31-25.33 123.54-25 124.24-24.65 124.94-24.3 125.09-24.2L125.09-24.2 124.14-21.9Q123.99-22 123.41-22.3 122.84-22.6 121.79-22.9 120.74-23.2 119.49-23.2L119.49-23.2Q117.09-23.2 115.39-22.08 113.69-20.95 113.69-18.95L113.69-18.95Q113.69-17.05 115.24-16.05 116.79-15.05 119.99-14.05L119.99-14.05Q122.69-13.15 124.34-12.35 125.99-11.55 127.16-10.08 128.34-8.6 128.34-6.25L128.34-6.25Q128.34-3.25 126.11-1.25 123.89 0.75 119.59 0.75L119.59 0.75Q116.74 0.75 114.66-0.23 112.59-1.2 111.51-2.8 110.44-4.4 110.34-6.35L110.34-6.35 112.99-6.35ZM137.59 0.65Q134.79-0.15 133.54-1.9 132.29-3.65 132.29-6.6L132.29-6.6 132.29-35 135.09-35 135.09-25.05 141.09-25.05 139.89-22.4 135.09-22.4 135.09-6.6Q135.09-2.6 138.39-1.5L138.39-1.5 137.59 0.65Z" opacity="1" transform="matrix(1,0,0,1,0,0)" fill="#ff7f50" class="wordmark-text-0" data-fill-palette-color="primary" id="text-0"></path></svg></g></svg></g><g transform="matrix(1,0,0,1,0,136.12876454987756)"><svg viewBox="0 0 232.209792 22.583810685030194" height="22.583810685030194" width="232.209792"><g transform="matrix(1,0,0,1,0,0)"><svg width="232.209792" viewBox="0.65 -38.7 471.89000000000004 45.900000000000006" height="22.583810685030194" data-palette-color="#ff7f50"><path d="M0.65-4.55L4.55-9.95Q8.8-5.7 13.05-5.7L13.05-5.7Q15.25-5.7 16.57-6.73 17.9-7.75 17.9-9.38 17.9-11 16.3-12.13 14.7-13.25 12.43-14.1 10.15-14.95 7.9-16.03 5.65-17.1 4.05-19.1 2.45-21.1 2.45-23.95L2.45-23.95Q2.45-28.45 6.2-31.73 9.95-35 15.1-35L15.1-35Q17.45-35 19.65-34.5 21.85-34 23.9-33.05L23.9-33.05 20.5-25.75Q19.1-26.85 16.68-27.78 14.25-28.7 12.43-28.7 10.6-28.7 9.47-27.83 8.35-26.95 8.35-25.5 8.35-24.05 9.95-22.93 11.55-21.8 13.83-20.95 16.1-20.1 18.38-19.07 20.65-18.05 22.25-16.05 23.85-14.05 23.85-11.2L23.85-11.2Q23.85-6.5 20.1-2.98 16.35 0.55 11.35 0.55L11.35 0.55Q7.6 0.55 4.7-1.25L4.7-1.25Q2.15-2.8 1.1-4L1.1-4 0.65-4.55ZM48.6-14.4L50.35-6.25 51-6.25 52.6-13.1 55.2-25.45 61.3-24.7 57.65-12.3 54.6-0.6 46.4 0.15 43.65-12 43.4-12.8 40.05-0.6 32.1 0.15 29.2-12 25.75-24.15 32.3-25.4 34.35-14.4 36.15-6.25 36.8-6.25 41.1-20.5 40.05-24.15 46.5-25.4 48.6-14.4ZM64.6-24.2L71.3-25.45 70.7-13 71.25-1.25 64.55 0 65.15-12.15 64.6-24.2ZM64.25-32.77Q64.25-34.45 65.55-35.77 66.85-37.1 68.55-37.1 70.25-37.1 71.15-36.18 72.05-35.25 72.05-33.4 72.05-31.55 70.77-30.23 69.5-28.9 67.82-28.9 66.15-28.9 65.2-30 64.25-31.1 64.25-32.77ZM91.69-38.25L90.14-32.55Q88.29-33 86.79-33 85.29-33 84.62-32.1 83.94-31.2 83.94-28.95L83.94-28.95 83.89-24.2 89.29-24.2 88.74-20.1 83.89-20.1 83.84-13 84.39-1.25 77.64 0 78.24-12.15 78.04-20.1 74.74-20.1 75.29-24.2 77.94-24.2 77.89-28Q77.89-32.45 80.64-35.58 83.39-38.7 87.34-38.7L87.34-38.7Q89.44-38.7 91.69-38.25L91.69-38.25ZM90.99-24.2L93.89-24.2 93.89-29.65 100.64-30.95 99.99-24.2 106.04-24.2 105.49-20.1 99.79-20.1 99.54-9.65Q99.54-7.3 99.99-6.53 100.44-5.75 101.64-5.75 102.84-5.75 104.84-6.3L104.84-6.3 105.14-2.75Q101.84 0 99.34 0 96.84 0 95.24-1.83 93.64-3.65 93.64-6.6L93.64-6.6 93.94-12.2 93.89-20.1 90.44-20.1 90.99-24.2ZM118.49 7.2L118.49-37.65 123.04-38.05 123.04 6.8 118.49 7.2ZM156.83-34.5L156.28-29.15 145.63-29.15 145.33-19.95 154.88-19.95 154.33-14.65 145.18-14.65 145.13-13 145.73 0 138.73 0 139.33-12.15 138.73-34.5 156.83-34.5ZM164.73 0Q161.78 0 159.9-1.88 158.03-3.75 158.03-6.93 158.03-10.1 160.93-12.43 163.83-14.75 167.98-14.75L167.98-14.75 171.38-14.75 171.38-15.6Q171.38-18.05 170.38-18.95 169.38-19.85 166.63-19.85L166.63-19.85Q165.48-19.85 163.9-19.38 162.33-18.9 160.38-17.9L160.38-17.9 158.93-21.85Q161.08-23.35 164.15-24.55 167.23-25.75 169.23-25.75L169.23-25.75Q177.08-25.75 177.08-18.15L177.08-18.15 177.08-8.35Q177.08-5.55 178.83-2.1L178.83-2.1 173.53 0.15Q172.28-2.25 171.68-4.15L171.68-4.15Q168.93 0 164.73 0L164.73 0ZM166.83-5.1L166.83-5.1Q168.83-5.1 171.38-7.15L171.38-7.15 171.38-10.5Q168.73-11.1 167.08-11.1L167.08-11.1Q163.93-11.1 163.93-8.3L163.93-8.3Q163.93-6.85 164.73-5.98 165.53-5.1 166.83-5.1ZM190.73-4.65L190.73-4.65Q193.33-4.65 193.33-6.95L193.33-6.95Q193.33-7.75 192.2-8.45 191.08-9.15 189.45-9.85 187.83-10.55 186.2-11.43 184.58-12.3 183.45-13.85 182.33-15.4 182.33-17.4L182.33-17.4Q182.33-20.75 185.28-23.25 188.23-25.75 192.08-25.75L192.08-25.75Q193.88-25.75 195.6-25.33 197.33-24.9 198.93-24L198.93-24 195.58-17.9Q195.23-18.2 194.68-18.65 194.13-19.1 192.6-19.83 191.08-20.55 189.9-20.55 188.73-20.55 188.1-20.03 187.48-19.5 187.48-18.57 187.48-17.65 189.2-16.73 190.93-15.8 192.98-15.03 195.03-14.25 196.75-12.48 198.48-10.7 198.48-8.25L198.48-8.25Q198.48-4.75 195.6-2.1 192.73 0.55 188.98 0.55L188.98 0.55Q186.58 0.55 184.5-0.5 182.43-1.55 181.53-2.6L181.53-2.6 180.63-3.65 184.58-8.25Q184.88-7.85 185.43-7.25 185.98-6.65 187.6-5.65 189.23-4.65 190.73-4.65ZM201.92-24.2L204.82-24.2 204.82-29.65 211.57-30.95 210.92-24.2 216.97-24.2 216.42-20.1 210.72-20.1 210.47-9.65Q210.47-7.3 210.92-6.53 211.37-5.75 212.57-5.75 213.77-5.75 215.77-6.3L215.77-6.3 216.07-2.75Q212.77 0 210.27 0 207.77 0 206.17-1.83 204.57-3.65 204.57-6.6L204.57-6.6 204.87-12.2 204.82-20.1 201.37-20.1 201.92-24.2ZM229.42 7.2L229.42-37.65 233.97-38.05 233.97 6.8 229.42 7.2ZM260.31 0.55L260.31 0.55Q254.76 0.55 250.96-4.1 247.16-8.75 247.16-15.5L247.16-15.5Q247.16-23.75 251.74-29.4 256.31-35.05 262.96-35.05L262.96-35.05Q265.56-35.05 267.79-34.52 270.01-34 270.96-33.45L270.96-33.45 271.86-32.9 268.46-25.95Q267.31-26.95 265.21-27.83 263.11-28.7 261.41-28.7L261.41-28.7Q257.96-28.7 255.89-25.85 253.81-23 253.81-17.73 253.81-12.45 255.96-9.08 258.11-5.7 261.81-5.7L261.81-5.7Q264.21-5.7 266.16-7.2 268.11-8.7 268.91-11.2L268.91-11.2 273.06-8.8Q271.41-4.4 268.01-1.93 264.61 0.55 260.31 0.55ZM274.61-10.45Q274.61-16.85 278.06-21.3 281.51-25.75 286.14-25.75 290.76-25.75 293.34-22.75 295.91-19.75 295.91-14.8L295.91-14.8Q295.91-8.2 292.59-3.83 289.26 0.55 284.21 0.55L284.21 0.55Q280.06 0.55 277.34-2.58 274.61-5.7 274.61-10.45L274.61-10.45ZM290.31-12.2L290.31-12.2Q290.31-19.45 285.36-19.45L285.36-19.45Q280.21-19.45 280.21-12.65L280.21-12.65Q280.21-9.1 281.66-7.1 283.11-5.1 285.49-5.1 287.86-5.1 289.09-6.93 290.31-8.75 290.31-12.2ZM314.71-12.65Q314.71-16.1 314.11-17.25 313.51-18.4 311.31-18.4 309.11-18.4 306.31-16.65L306.31-16.65 306.31-13 306.86-1.25 300.16 0 300.76-12.15Q300.56-18.85 299.66-24.15L299.66-24.15 305.71-25.45Q306.06-22.55 306.21-19.8L306.21-19.8Q306.96-20.8 307.91-21.78 308.86-22.75 310.91-23.98 312.96-25.2 315.23-25.2 317.51-25.2 319.06-23.43 320.61-21.65 320.61-18.6L320.61-18.6 320.31-13 320.86-1 314.11 0.25 314.71-12.65ZM333.01-14.4L334.86-6.25 335.51-6.25 337.16-13.1 339.86-25.45 346.06-24.7 342.31-12.3 339.16-0.6 330.61 0.15 327.66-12 324.06-24.15 330.86-25.4 333.01-14.4ZM358.35-5.1L358.35-5.1Q359.8-5.1 361.4-5.85 363-6.6 363.9-7.35L363.9-7.35 364.8-8.1 367.1-5.3Q366.6-4.45 365.55-3.35 364.5-2.25 363.43-1.48 362.35-0.7 360.58-0.08 358.8 0.55 356.9 0.55L356.9 0.55Q352.85 0.55 350.3-2.53 347.75-5.6 347.75-10.45L347.75-10.45Q347.75-16.55 351.3-21.15 354.85-25.75 359.6-25.75L359.6-25.75Q363.25-25.75 365.28-23.7 367.3-21.65 367.3-17.95L367.3-17.95Q367.3-15.75 366.55-12.95L366.55-12.95 365.55-11.9 353.05-10.75Q353.9-5.1 358.35-5.1ZM358.35-20.6L358.35-20.6Q356.15-20.6 354.65-18.82 353.15-17.05 352.9-14.3L352.9-14.3 361.4-15.35Q361.55-16.5 361.55-17.25L361.55-17.25Q361.55-20.6 358.35-20.6ZM386.15-12.65Q386.15-16.1 385.55-17.25 384.95-18.4 382.75-18.4 380.55-18.4 377.75-16.65L377.75-16.65 377.75-13 378.3-1.25 371.6 0 372.2-12.15Q372-18.85 371.1-24.15L371.1-24.15 377.15-25.45Q377.5-22.55 377.65-19.8L377.65-19.8Q378.4-20.8 379.35-21.78 380.3-22.75 382.35-23.98 384.4-25.2 386.68-25.2 388.95-25.2 390.5-23.43 392.05-21.65 392.05-18.6L392.05-18.6 391.75-13 392.3-1 385.55 0.25 386.15-12.65ZM397.8-24.2L404.5-25.45 403.9-13 404.45-1.25 397.75 0 398.35-12.15 397.8-24.2ZM397.45-32.77Q397.45-34.45 398.75-35.77 400.05-37.1 401.75-37.1 403.45-37.1 404.35-36.18 405.25-35.25 405.25-33.4 405.25-31.55 403.97-30.23 402.7-28.9 401.02-28.9 399.35-28.9 398.4-30 397.45-31.1 397.45-32.77ZM419-5.1L419-5.1Q420.45-5.1 422.05-5.85 423.65-6.6 424.55-7.35L424.55-7.35 425.45-8.1 427.75-5.3Q427.25-4.45 426.2-3.35 425.15-2.25 424.07-1.48 423-0.7 421.22-0.08 419.45 0.55 417.55 0.55L417.55 0.55Q413.5 0.55 410.95-2.53 408.4-5.6 408.4-10.45L408.4-10.45Q408.4-16.55 411.95-21.15 415.5-25.75 420.25-25.75L420.25-25.75Q423.9-25.75 425.92-23.7 427.95-21.65 427.95-17.95L427.95-17.95Q427.95-15.75 427.2-12.95L427.2-12.95 426.2-11.9 413.7-10.75Q414.55-5.1 419-5.1ZM419-20.6L419-20.6Q416.8-20.6 415.3-18.82 413.8-17.05 413.55-14.3L413.55-14.3 422.05-15.35Q422.2-16.5 422.2-17.25L422.2-17.25Q422.2-20.6 419-20.6ZM446.79-12.65Q446.79-16.1 446.19-17.25 445.59-18.4 443.39-18.4 441.19-18.4 438.39-16.65L438.39-16.65 438.39-13 438.94-1.25 432.24 0 432.84-12.15Q432.64-18.85 431.74-24.15L431.74-24.15 437.79-25.45Q438.14-22.55 438.29-19.8L438.29-19.8Q439.04-20.8 439.99-21.78 440.94-22.75 442.99-23.98 445.04-25.2 447.32-25.2 449.59-25.2 451.14-23.43 452.69-21.65 452.69-18.6L452.69-18.6 452.39-13 452.94-1 446.19 0.25 446.79-12.65ZM457.49-24.2L460.39-24.2 460.39-29.65 467.14-30.95 466.49-24.2 472.54-24.2 471.99-20.1 466.29-20.1 466.04-9.65Q466.04-7.3 466.49-6.53 466.94-5.75 468.14-5.75 469.34-5.75 471.34-6.3L471.34-6.3 471.64-2.75Q468.34 0 465.84 0 463.34 0 461.74-1.83 460.14-3.65 460.14-6.6L460.14-6.6 460.44-12.2 460.39-20.1 456.94-20.1 457.49-24.2Z" opacity="1" transform="matrix(1,0,0,1,0,0)" fill="#ff7f50" class="slogan-text-1" data-fill-palette-color="secondary" id="text-1"></path></svg></g></svg></g></svg></g></svg></g><g><svg viewBox="0 0 191.60974310399996 207.11441536059257" height="207.11441536059257" width="191.60974310399996"><g><svg xmlns="http://www.w3.org/2000/svg" xmlns:xlink="http://www.w3.org/1999/xlink" version="1.1" x="0" y="0" viewBox="19.759 17.312 60.480999999999995 65.375" enable-background="new 0 0 100 100" xml:space="preserve" height="207.11441536059257" width="191.60974310399996" class="icon-icon-0" data-fill-palette-color="accent" id="icon-0"><path fill="#ff7f50" d="M80.225 26.502H71.569V30.088H66.256V26.502H33.733V30.088H28.42V26.502H19.759V77.48A5.21 5.21 0 0 0 24.966 82.687H75.033A5.216 5.216 0 0 0 80.24 77.48zM39.289 80.807H24.966A3.33 3.33 0 0 1 21.64 77.481V66.958H39.289zM39.289 65.075H21.64V51.25H39.289zM39.289 49.367H21.64S21.692 35.644 21.703 35.537H39.289zM58.828 80.807H41.171V66.958H58.828zM58.828 65.075H41.171V51.25H58.828zM58.828 49.367H41.171V35.537H58.828zM78.359 77.48A3.33 3.33 0 0 1 75.033 80.806H60.709V66.958H78.359zM78.359 65.075H60.709V51.25H78.359zM60.709 49.367V35.537H78.297C78.309 35.644 78.359 49.367 78.359 49.367z" data-fill-palette-color="accent"></path><rect x="29.989" y="17.312" fill="#ff7f50" width="2.175" height="11.229" data-fill-palette-color="accent"></rect><rect x="67.85" y="17.312" fill="#ff7f50" width="2.176" height="11.229" data-fill-palette-color="accent"></rect></svg></g></svg></g></svg></g><defs></defs></svg><rect width="395.52" height="133.46510146534212" fill="none" stroke="none" visibility="hidden"></rect></g></svg></g></svg>